<svg width="139" height="124" viewBox="0 0 139 124" fill="none" xmlns="http://www.w3.org/2000/svg">
<path d="M106.015 84.7617C97.386 84.7617 64.6126 84.7617 54.5665 84.7617C48.9796 84.7617 43.5604 83.6677 38.4594 81.5101C33.5318 79.4259 29.1061 76.442 25.3053 72.6413C21.5044 68.8405 18.5204 64.415 16.4362 59.4875C14.2786 54.3866 13.1846 48.9675 13.1846 43.3808C13.1846 37.7941 14.2786 32.375 16.4362 27.2741C18.5204 22.3467 21.5044 17.9211 25.3053 14.1204C29.1061 10.3196 33.5318 7.33572 38.4594 5.25152C43.5604 3.09398 48.9796 2 54.5665 2C62.6891 2 70.5515 4.35145 77.3038 8.80014C83.8878 13.138 89.0763 19.2191 92.3086 26.386L92.7656 27.3993L93.7817 26.9485C97.6415 25.2362 101.758 24.3679 106.015 24.3679C114.081 24.3679 121.664 27.5091 127.368 33.2129C133.071 38.9165 136.212 46.4998 136.212 54.5658C136.212 62.6316 133.071 70.2145 127.368 75.9176C121.665 81.6208 114.082 84.7617 106.015 84.7617Z" fill="#EAEFFB" stroke="#707070" stroke-width="4"/>
<path d="M74.58 84.6021C67.833 84.6021 42.209 84.6021 34.3545 84.6021C29.9864 84.6021 25.7494 83.7467 21.7611 82.0599C17.9085 80.4304 14.4483 78.0974 11.4766 75.1258C8.50488 72.1541 6.17185 68.694 4.54227 64.8415C2.85535 60.8533 2 56.6164 2 52.2484C2 47.8805 2.85535 43.6435 4.54227 39.6554C6.17185 35.8029 8.50488 32.3427 11.4766 29.3711C14.4483 26.3995 17.9085 24.0665 21.7611 22.437C25.7494 20.7501 29.9864 19.8948 34.3545 19.8948C40.7052 19.8948 46.8524 21.7333 52.1317 25.2115C57.2794 28.603 61.3361 33.3575 63.8632 38.961L64.2206 39.7533L65.015 39.4008C68.0328 38.062 71.2509 37.3832 74.58 37.3832C80.8863 37.3832 86.8152 39.8391 91.2744 44.2986C95.7335 48.758 98.1893 54.687 98.1893 60.9934C98.1893 67.2997 95.7335 73.2284 91.2744 77.6874C86.8153 82.1464 80.8864 84.6021 74.58 84.6021Z" fill="#EAF1FB" stroke="#707070" stroke-width="4"/>
<path d="M88 102H109" stroke="#707070" stroke-width="4" stroke-linecap="round"/>
<path d="M93.1748 93.3314L103.675 111.518" stroke="#707070" stroke-width="4" stroke-linecap="round"/>
<path d="M103.5 93L93 111.187" stroke="#707070" stroke-width="4" stroke-linecap="round"/>
<path d="M59 112H80" stroke="#707070" stroke-width="4" stroke-linecap="round"/>
<path d="M64.1748 103.331L74.6748 121.518" stroke="#707070" stroke-width="4" stroke-linecap="round"/>
<path d="M74.5 103L64 121.187" stroke="#707070" stroke-width="4" stroke-linecap="round"/>
<path d="M29 102H50" stroke="#707070" stroke-width="4" stroke-linecap="round"/>
<path d="M34.1748 93.3314L44.6748 111.518" stroke="#707070" stroke-width="4" stroke-linecap="round"/>
<path d="M44.5 93L34 111.187" stroke="#707070" stroke-width="4" stroke-linecap="round"/>
</svg>
