<svg width="129" height="87" viewBox="0 0 129 87" fill="none" xmlns="http://www.w3.org/2000/svg">
<path d="M96.0204 84.7617C87.3909 84.7617 54.6174 84.7617 44.5714 84.7617C38.9845 84.7617 33.5653 83.6677 28.4643 81.5101C23.5367 79.4259 19.111 76.442 15.3102 72.6413C11.5093 68.8405 8.52531 64.415 6.44106 59.4875C4.28346 54.3866 3.18945 48.9675 3.18945 43.3808C3.18945 37.7941 4.28346 32.375 6.44106 27.2741C8.52531 22.3467 11.5093 17.9211 15.3102 14.1204C19.111 10.3196 23.5367 7.33572 28.4643 5.25152C33.5653 3.09398 38.9845 2 44.5714 2C52.694 2 60.5564 4.35145 67.3087 8.80014C73.8927 13.138 79.0812 19.2191 82.3135 26.386L82.7705 27.3993L83.7866 26.9485C87.6464 25.2362 91.7624 24.3679 96.0204 24.3679C104.086 24.3679 111.669 27.5091 117.373 33.2129C123.076 38.9165 126.217 46.4998 126.217 54.5658C126.217 62.6316 123.076 70.2145 117.373 75.9176C111.67 81.6208 104.086 84.7617 96.0204 84.7617Z" fill="#EAEFFB" stroke="#707070" stroke-width="4"/>
<path d="M74.58 84.6021C67.833 84.6021 42.209 84.6021 34.3545 84.6021C29.9864 84.6021 25.7494 83.7467 21.7611 82.0599C17.9085 80.4304 14.4483 78.0974 11.4766 75.1258C8.50488 72.1541 6.17185 68.694 4.54227 64.8415C2.85535 60.8533 2 56.6164 2 52.2484C2 47.8805 2.85535 43.6435 4.54227 39.6554C6.17185 35.8029 8.50488 32.3427 11.4766 29.3711C14.4483 26.3995 17.9085 24.0665 21.7611 22.437C25.7494 20.7501 29.9864 19.8948 34.3545 19.8948C40.7052 19.8948 46.8524 21.7333 52.1317 25.2115C57.2794 28.603 61.3361 33.3575 63.8632 38.961L64.2206 39.7533L65.015 39.4008C68.0328 38.062 71.2509 37.3832 74.58 37.3832C80.8863 37.3832 86.8152 39.8391 91.2744 44.2986C95.7335 48.758 98.1893 54.687 98.1893 60.9934C98.1893 67.2997 95.7335 73.2284 91.2744 77.6874C86.8153 82.1464 80.8864 84.6021 74.58 84.6021Z" fill="#EAF1FB" stroke="#707070" stroke-width="4"/>
</svg>
