<svg width="123" height="104" viewBox="0 0 123 104" fill="none" xmlns="http://www.w3.org/2000/svg">
<circle cx="80.2591" cy="39.3899" r="23.9973" fill="#FFEC8D" stroke="#707070" stroke-width="4"/>
<line x1="78.2588" y1="76.7798" x2="78.2588" y2="72.9018" stroke="#707070" stroke-width="4" stroke-linecap="round"/>
<line x1="78.2588" y1="5.87793" x2="78.2588" y2="1.99995" stroke="#707070" stroke-width="4" stroke-linecap="round"/>
<line x1="112.983" y1="38.1777" x2="120.013" y2="38.1777" stroke="#707070" stroke-width="4" stroke-linecap="round"/>
<line x1="40.5059" y1="38.1777" x2="47.535" y2="38.1777" stroke="#707070" stroke-width="4" stroke-linecap="round"/>
<line x1="108.62" y1="17.6542" x2="110.518" y2="15.7559" stroke="#707070" stroke-width="4" stroke-linecap="round"/>
<line x1="50.3232" y1="63.3467" x2="52.2216" y2="61.4484" stroke="#707070" stroke-width="4" stroke-linecap="round"/>
<line x1="108.62" y1="63.3467" x2="110.518" y2="61.4484" stroke="#707070" stroke-width="4" stroke-linecap="round"/>
<line x1="56.625" y1="14.503" x2="58.5234" y2="12.6046" stroke="#707070" stroke-width="4" stroke-linecap="round"/>
<path d="M87.4675 101.173C79.5225 101.173 49.3487 101.173 40.0995 101.173C34.9558 101.173 29.9664 100.166 25.27 98.1791C20.7333 96.2602 16.6586 93.5129 13.1593 90.0135C9.65992 86.5141 6.91262 82.4395 4.99369 77.9028C3.00723 73.2063 2 68.217 2 63.0733C2 57.9296 3.00723 52.9402 4.99369 48.2438C6.91262 43.707 9.65992 39.6324 13.1593 36.133C16.6586 32.6337 20.7333 29.8864 25.27 27.9674C29.9664 25.981 34.9558 24.9738 40.0995 24.9738C47.5778 24.9738 54.8166 27.1387 61.0333 31.2347C67.095 35.2285 71.872 40.8274 74.8479 47.4261L75.2687 48.359L76.2042 47.944C79.7578 46.3674 83.5474 45.568 87.4675 45.568C94.8937 45.568 101.875 48.4601 107.126 53.7116C112.377 58.963 115.269 65.9449 115.269 73.3713C115.269 80.7975 112.377 87.7792 107.126 93.0301C101.875 98.281 94.8938 101.173 87.4675 101.173Z" fill="#EAEFFB" stroke="#707070" stroke-width="4"/>
</svg>
