<svg width="255" height="87" viewBox="0 0 255 87" fill="none" xmlns="http://www.w3.org/2000/svg">
<path d="M221.831 84.7617C213.201 84.7617 180.428 84.7617 170.382 84.7617C164.795 84.7617 159.376 83.6677 154.275 81.5101C149.347 79.4259 144.922 76.442 141.121 72.6413C137.32 68.8405 134.336 64.415 132.252 59.4875C130.094 54.3866 129 48.9675 129 43.3808C129 37.7941 130.094 32.375 132.252 27.2741C134.336 22.3467 137.32 17.9211 141.121 14.1204C144.922 10.3196 149.347 7.33572 154.275 5.25152C159.376 3.09398 164.795 2 170.382 2C178.505 2 186.367 4.35145 193.119 8.80014C199.703 13.138 204.892 19.2191 208.124 26.386L208.581 27.3993L209.597 26.9485C213.457 25.2362 217.573 24.3679 221.831 24.3679C229.897 24.3679 237.48 27.5091 243.183 33.2129C248.887 38.9165 252.028 46.4998 252.028 54.5658C252.028 62.6316 248.887 70.2145 243.183 75.9176C237.48 81.6208 229.897 84.7617 221.831 84.7617Z" fill="#EAEFFB" stroke="#707070" stroke-width="4"/>
<path d="M74.58 84.7073C67.833 84.7073 42.209 84.7073 34.3545 84.7073C29.9864 84.7073 25.7494 83.852 21.7611 82.1651C17.9085 80.5356 14.4483 78.2026 11.4766 75.231C8.50488 72.2594 6.17185 68.7992 4.54227 64.9467C2.85535 60.9585 2 56.7216 2 52.3536C2 47.9857 2.85535 43.7488 4.54227 39.7606C6.17185 35.9081 8.50488 32.448 11.4766 29.4763C14.4483 26.5047 17.9085 24.1717 21.7611 22.5422C25.7494 20.8553 29.9864 20 34.3545 20C40.7052 20 46.8524 21.8385 52.1317 25.3167C57.2794 28.7082 61.3361 33.4627 63.8632 39.0663L64.2206 39.8585L65.015 39.5061C68.0328 38.1672 71.2509 37.4884 74.58 37.4884C80.8863 37.4884 86.8152 39.9443 91.2744 44.4038C95.7335 48.8633 98.1893 54.7923 98.1893 61.0986C98.1893 67.4049 95.7335 73.3336 91.2744 77.7926C86.8153 82.2516 80.8864 84.7073 74.58 84.7073Z" fill="#EAF1FB" stroke="#707070" stroke-width="4"/>
</svg>
